<svg width="300" height="242" viewBox="0 0 300 242" fill="none" xmlns="http://www.w3.org/2000/svg">
<path fill-rule="evenodd" clip-rule="evenodd" d="M8.85712 238.501C8.85712 239.119 9.35794 239.62 9.97578 239.62C10.5936 239.62 11.0944 239.119 11.0944 238.501C11.0944 237.883 10.5936 237.382 9.97578 237.382C9.35794 237.382 8.85712 237.883 8.85712 238.501Z" fill="#209DB2" fill-opacity="0.1"/>
<path fill-rule="evenodd" clip-rule="evenodd" d="M28.7805 238.501C28.7805 240.237 30.1876 241.644 31.9235 241.644C33.6593 241.644 35.0664 240.237 35.0664 238.501C35.0664 236.765 33.6593 235.358 31.9235 235.358C30.1876 235.358 28.7805 236.765 28.7805 238.501Z" fill="#209DB2" fill-opacity="0.1"/>
<path fill-rule="evenodd" clip-rule="evenodd" d="M74.0605 238.501C74.0605 239.472 74.8476 240.259 75.8184 240.259C76.7893 240.259 77.5764 239.472 77.5764 238.501C77.5764 237.53 76.7893 236.743 75.8184 236.743C74.8476 236.743 74.0605 237.53 74.0605 238.501Z" fill="#209DB2" fill-opacity="0.1"/>
<path fill-rule="evenodd" clip-rule="evenodd" d="M207.291 238.501C207.291 238.619 207.386 238.715 207.504 238.715C207.622 238.715 207.718 238.619 207.718 238.501C207.718 238.383 207.622 238.288 207.504 238.288C207.386 238.288 207.291 238.383 207.291 238.501Z" fill="#209DB2" fill-opacity="0.1"/>
<path fill-rule="evenodd" clip-rule="evenodd" d="M19.9908 226.195C19.9908 226.725 20.4201 227.154 20.9497 227.154C21.4792 227.154 21.9085 226.725 21.9085 226.195C21.9085 225.666 21.4792 225.237 20.9497 225.237C20.4201 225.237 19.9908 225.666 19.9908 226.195Z" fill="#209DB2" fill-opacity="0.1"/>
<path fill-rule="evenodd" clip-rule="evenodd" d="M61.9681 226.195C61.9681 227.784 63.256 229.072 64.8447 229.072C66.4334 229.072 67.7213 227.784 67.7213 226.195C67.7213 224.607 66.4334 223.319 64.8447 223.319C63.256 223.319 61.9681 224.607 61.9681 226.195Z" fill="#209DB2" fill-opacity="0.1"/>
<path fill-rule="evenodd" clip-rule="evenodd" d="M83.4894 226.195C83.4894 228.02 84.9681 229.498 86.7922 229.498C88.6163 229.498 90.0949 228.02 90.0949 226.195C90.0949 224.371 88.6163 222.893 86.7922 222.893C84.9681 222.893 83.4894 224.371 83.4894 226.195Z" fill="#209DB2" fill-opacity="0.1"/>
<path fill-rule="evenodd" clip-rule="evenodd" d="M8.27124 213.837C8.27124 214.778 9.03442 215.541 9.97591 215.541C10.9174 215.541 11.6806 214.778 11.6806 213.837C11.6806 212.895 10.9174 212.132 9.97591 212.132C9.03442 212.132 8.27124 212.895 8.27124 213.837Z" fill="#209DB2" fill-opacity="0.1"/>
<path fill-rule="evenodd" clip-rule="evenodd" d="M51.7401 213.837C51.7401 215.013 52.6941 215.967 53.871 215.967C55.0478 215.967 56.0018 215.013 56.0018 213.837C56.0018 212.66 55.0478 211.706 53.871 211.706C52.6941 211.706 51.7401 212.66 51.7401 213.837Z" fill="#209DB2" fill-opacity="0.1"/>
<path fill-rule="evenodd" clip-rule="evenodd" d="M73.581 213.837C73.581 215.072 74.5827 216.074 75.8184 216.074C77.054 216.074 78.0557 215.072 78.0557 213.837C78.0557 212.601 77.054 211.599 75.8184 211.599C74.5827 211.599 73.581 212.601 73.581 213.837Z" fill="#209DB2" fill-opacity="0.1"/>
<path fill-rule="evenodd" clip-rule="evenodd" d="M20.7365 201.532C20.7365 201.649 20.8321 201.745 20.95 201.745C21.0678 201.745 21.1635 201.65 21.1635 201.532C21.1635 201.414 21.0679 201.318 20.95 201.318C20.8321 201.318 20.7365 201.414 20.7365 201.532Z" fill="#209DB2" fill-opacity="0.1"/>
<path fill-rule="evenodd" clip-rule="evenodd" d="M40.8196 201.531C40.8196 202.679 41.7498 203.609 42.8972 203.609C44.0446 203.609 44.9748 202.679 44.9748 201.531C44.9748 200.384 44.0446 199.454 42.8972 199.454C41.7498 199.454 40.8196 200.384 40.8196 201.531Z" fill="#209DB2" fill-opacity="0.1"/>
<path fill-rule="evenodd" clip-rule="evenodd" d="M85.1409 201.531C85.1409 202.443 85.8802 203.182 86.7922 203.182C87.7043 203.182 88.4436 202.443 88.4436 201.531C88.4436 200.619 87.7042 199.88 86.7922 199.88C85.8802 199.88 85.1409 200.619 85.1409 201.531Z" fill="#209DB2" fill-opacity="0.1"/>
<path fill-rule="evenodd" clip-rule="evenodd" d="M9.8161 189.173C9.8161 189.261 9.88781 189.333 9.97622 189.333C10.0646 189.333 10.1363 189.261 10.1363 189.173C10.1363 189.084 10.0646 189.012 9.97622 189.012C9.88776 189.012 9.8161 189.084 9.8161 189.173Z" fill="#209DB2" fill-opacity="0.1"/>
<path fill-rule="evenodd" clip-rule="evenodd" d="M30.858 189.172C30.858 189.761 31.335 190.238 31.9234 190.238C32.5118 190.238 32.9888 189.761 32.9888 189.172C32.9888 188.584 32.5118 188.107 31.9234 188.107C31.335 188.107 30.858 188.584 30.858 189.172Z" fill="#209DB2" fill-opacity="0.1"/>
<path fill-rule="evenodd" clip-rule="evenodd" d="M51.9531 189.172C51.9531 190.231 52.8117 191.09 53.8709 191.09C54.93 191.09 55.7886 190.231 55.7886 189.172C55.7886 188.113 54.93 187.254 53.8709 187.254C52.8117 187.254 51.9531 188.113 51.9531 189.172Z" fill="#209DB2" fill-opacity="0.1"/>
<path fill-rule="evenodd" clip-rule="evenodd" d="M-3.44843 176.867C-3.44843 178.22 -2.3513 179.317 -0.997968 179.317C0.35536 179.317 1.45248 178.22 1.45248 176.867C1.45248 175.513 0.35536 174.416 -0.997968 174.416C-2.35136 174.416 -3.44843 175.513 -3.44843 176.867Z" fill="#209DB2" fill-opacity="0.1"/>
<path fill-rule="evenodd" clip-rule="evenodd" d="M19.0851 176.867C19.0851 177.897 19.9199 178.731 20.9496 178.731C21.9793 178.731 22.8141 177.897 22.8141 176.867C22.8141 175.837 21.9793 175.002 20.9496 175.002C19.9199 175.002 19.0851 175.837 19.0851 176.867Z" fill="#209DB2" fill-opacity="0.1"/>
<path fill-rule="evenodd" clip-rule="evenodd" d="M104.904 176.867C104.904 178.985 106.622 180.702 108.74 180.702C110.858 180.702 112.575 178.985 112.575 176.867C112.575 174.748 110.858 173.031 108.74 173.031C106.622 173.031 104.904 174.748 104.904 176.867Z" fill="#209DB2" fill-opacity="0.1"/>
<path fill-rule="evenodd" clip-rule="evenodd" d="M129.995 176.867C129.995 177.249 130.305 177.559 130.687 177.559C131.07 177.559 131.38 177.249 131.38 176.867C131.38 176.484 131.07 176.174 130.687 176.174C130.305 176.174 129.995 176.484 129.995 176.867Z" fill="#209DB2" fill-opacity="0.1"/>
<path fill-rule="evenodd" clip-rule="evenodd" d="M151.676 176.867C151.676 177.396 152.105 177.826 152.635 177.826C153.164 177.826 153.594 177.396 153.594 176.867C153.594 176.337 153.164 175.908 152.635 175.908C152.105 175.908 151.676 176.337 151.676 176.867Z" fill="#209DB2" fill-opacity="0.1"/>
<path fill-rule="evenodd" clip-rule="evenodd" d="M195.092 176.867C195.092 177.661 195.736 178.305 196.53 178.305C197.324 178.305 197.968 177.661 197.968 176.867C197.968 176.072 197.324 175.428 196.53 175.428C195.736 175.428 195.092 176.072 195.092 176.867Z" fill="#209DB2" fill-opacity="0.1"/>
<path fill-rule="evenodd" clip-rule="evenodd" d="M8.05811 164.561C8.05811 165.62 8.9167 166.479 9.97585 166.479C11.0349 166.479 11.8935 165.62 11.8935 164.561C11.8935 163.502 11.0349 162.643 9.97585 162.643C8.9167 162.643 8.05811 163.502 8.05811 164.561Z" fill="#209DB2" fill-opacity="0.1"/>
<path fill-rule="evenodd" clip-rule="evenodd" d="M26.6497 164.561C26.6497 167.474 29.0108 169.835 31.9235 169.835C34.8361 169.835 37.1973 167.474 37.1973 164.561C37.1973 161.649 34.8361 159.287 31.9235 159.287C29.0109 159.287 26.6497 161.649 26.6497 164.561Z" fill="#209DB2" fill-opacity="0.1"/>
<path fill-rule="evenodd" clip-rule="evenodd" d="M49.5028 164.561C49.5028 166.974 51.4585 168.93 53.871 168.93C56.2835 168.93 58.2392 166.974 58.2392 164.561C58.2392 162.149 56.2835 160.193 53.871 160.193C51.4585 160.193 49.5028 162.149 49.5028 164.561Z" fill="#209DB2" fill-opacity="0.1"/>
<path fill-rule="evenodd" clip-rule="evenodd" d="M72.0362 164.561C72.0362 166.65 73.7296 168.343 75.8184 168.343C77.9073 168.343 79.6006 166.65 79.6006 164.561C79.6006 162.472 77.9073 160.779 75.8184 160.779C73.7296 160.779 72.0362 162.472 72.0362 164.561Z" fill="#209DB2" fill-opacity="0.1"/>
<path fill-rule="evenodd" clip-rule="evenodd" d="M137.24 164.561C137.24 167.003 139.219 168.982 141.661 168.982C144.103 168.982 146.083 167.003 146.083 164.561C146.083 162.119 144.103 160.14 141.661 160.14C139.219 160.14 137.24 162.119 137.24 164.561Z" fill="#209DB2" fill-opacity="0.1"/>
<path fill-rule="evenodd" clip-rule="evenodd" d="M250.973 164.561C250.973 164.797 251.163 164.987 251.399 164.987C251.634 164.987 251.825 164.797 251.825 164.561C251.825 164.326 251.634 164.135 251.399 164.135C251.163 164.135 250.973 164.326 250.973 164.561Z" fill="#209DB2" fill-opacity="0.1"/>
<path fill-rule="evenodd" clip-rule="evenodd" d="M-5.09979 152.202C-5.09979 154.468 -3.2633 156.304 -0.997917 156.304C1.26748 156.304 3.10391 154.468 3.10391 152.202C3.10391 149.937 1.26748 148.1 -0.997917 148.1C-3.2633 148.1 -5.09979 149.937 -5.09979 152.202Z" fill="#209DB2" fill-opacity="0.1"/>
<path fill-rule="evenodd" clip-rule="evenodd" d="M18.2328 152.203C18.2328 153.703 19.4492 154.919 20.9496 154.919C22.4501 154.919 23.6665 153.703 23.6665 152.203C23.6665 150.702 22.4501 149.486 20.9496 149.486C19.4492 149.486 18.2328 150.702 18.2328 152.203Z" fill="#209DB2" fill-opacity="0.1"/>
<path fill-rule="evenodd" clip-rule="evenodd" d="M39.0616 152.202C39.0616 154.321 40.7788 156.038 42.8971 156.038C45.0154 156.038 46.7326 154.321 46.7326 152.202C46.7326 150.084 45.0154 148.367 42.8971 148.367C40.7788 148.367 39.0616 150.084 39.0616 152.202Z" fill="#209DB2" fill-opacity="0.1"/>
<path fill-rule="evenodd" clip-rule="evenodd" d="M62.6074 152.202C62.6074 153.438 63.6091 154.44 64.8448 154.44C66.0805 154.44 67.0822 153.438 67.0822 152.202C67.0822 150.967 66.0805 149.965 64.8448 149.965C63.6091 149.965 62.6074 150.967 62.6074 152.202Z" fill="#209DB2" fill-opacity="0.1"/>
<path fill-rule="evenodd" clip-rule="evenodd" d="M84.3417 152.202C84.3417 153.556 85.4389 154.653 86.7922 154.653C88.1455 154.653 89.2426 153.556 89.2426 152.202C89.2426 150.849 88.1455 149.752 86.7922 149.752C85.4388 149.752 84.3417 150.849 84.3417 152.202Z" fill="#209DB2" fill-opacity="0.1"/>
<path fill-rule="evenodd" clip-rule="evenodd" d="M151.889 152.202C151.889 152.614 152.223 152.948 152.635 152.948C153.047 152.948 153.381 152.614 153.381 152.202C153.381 151.791 153.047 151.457 152.635 151.457C152.223 151.457 151.889 151.791 151.889 152.202Z" fill="#209DB2" fill-opacity="0.1"/>
<path fill-rule="evenodd" clip-rule="evenodd" d="M172.984 152.203C172.984 153.085 173.7 153.801 174.583 153.801C175.465 153.801 176.181 153.085 176.181 152.203C176.181 151.32 175.465 150.604 174.583 150.604C173.7 150.604 172.984 151.32 172.984 152.203Z" fill="#209DB2" fill-opacity="0.1"/>
<path fill-rule="evenodd" clip-rule="evenodd" d="M237.921 152.202C237.921 153.585 239.042 154.706 240.425 154.706C241.808 154.706 242.929 153.585 242.929 152.202C242.929 150.82 241.808 149.699 240.425 149.699C239.042 149.699 237.921 150.82 237.921 152.202Z" fill="#209DB2" fill-opacity="0.1"/>
<path fill-rule="evenodd" clip-rule="evenodd" d="M261.733 152.202C261.733 152.556 262.02 152.842 262.373 152.842C262.726 152.842 263.012 152.556 263.012 152.202C263.012 151.849 262.726 151.563 262.373 151.563C262.02 151.563 261.733 151.849 261.733 152.202Z" fill="#209DB2" fill-opacity="0.1"/>
<path fill-rule="evenodd" clip-rule="evenodd" d="M8.05811 139.897C8.05811 140.956 8.9167 141.815 9.97585 141.815C11.0349 141.815 11.8935 140.956 11.8935 139.897C11.8935 138.838 11.0349 137.979 9.97585 137.979C8.9167 137.979 8.05811 138.838 8.05811 139.897Z" fill="#209DB2" fill-opacity="0.1"/>
<path fill-rule="evenodd" clip-rule="evenodd" d="M28.301 139.897C28.301 141.897 29.9227 143.519 31.9234 143.519C33.9239 143.519 35.5458 141.897 35.5458 139.897C35.5458 137.896 33.9239 136.274 31.9234 136.274C29.9227 136.274 28.301 137.896 28.301 139.897Z" fill="#209DB2" fill-opacity="0.1"/>
<path fill-rule="evenodd" clip-rule="evenodd" d="M49.0233 139.897C49.0233 142.574 51.1937 144.744 53.8709 144.744C56.5482 144.744 58.7186 142.574 58.7186 139.897C58.7186 137.22 56.5482 135.049 53.8709 135.049C51.1936 135.049 49.0233 137.22 49.0233 139.897Z" fill="#209DB2" fill-opacity="0.1"/>
<path fill-rule="evenodd" clip-rule="evenodd" d="M72.9951 139.897C72.9951 141.456 74.2592 142.72 75.8184 142.72C77.3777 142.72 78.6418 141.456 78.6418 139.897C78.6418 138.338 77.3777 137.073 75.8184 137.073C74.2592 137.073 72.9951 138.338 72.9951 139.897Z" fill="#209DB2" fill-opacity="0.1"/>
<path fill-rule="evenodd" clip-rule="evenodd" d="M93.1315 139.897C93.1315 142.456 95.2064 144.531 97.766 144.531C100.326 144.531 102.401 142.456 102.401 139.897C102.401 137.337 100.326 135.262 97.766 135.262C95.2064 135.262 93.1315 137.337 93.1315 139.897Z" fill="#209DB2" fill-opacity="0.1"/>
<path fill-rule="evenodd" clip-rule="evenodd" d="M118.115 139.897C118.115 140.779 118.831 141.495 119.714 141.495C120.596 141.495 121.312 140.779 121.312 139.897C121.312 139.014 120.596 138.299 119.714 138.299C118.831 138.299 118.115 139.014 118.115 139.897Z" fill="#209DB2" fill-opacity="0.1"/>
<path fill-rule="evenodd" clip-rule="evenodd" d="M139.317 139.897C139.317 141.192 140.367 142.241 141.661 142.241C142.956 142.241 144.005 141.192 144.005 139.897C144.005 138.602 142.956 137.553 141.661 137.553C140.367 137.553 139.317 138.602 139.317 139.897Z" fill="#209DB2" fill-opacity="0.1"/>
<path fill-rule="evenodd" clip-rule="evenodd" d="M180.229 139.897C180.229 142.839 182.614 145.224 185.556 145.224C188.498 145.224 190.883 142.839 190.883 139.897C190.883 136.955 188.498 134.57 185.556 134.57C182.614 134.57 180.229 136.955 180.229 139.897Z" fill="#209DB2" fill-opacity="0.1"/>
<path fill-rule="evenodd" clip-rule="evenodd" d="M225.03 139.897C225.03 142.339 227.009 144.318 229.451 144.318C231.893 144.318 233.873 142.339 233.873 139.897C233.873 137.455 231.893 135.475 229.451 135.475C227.009 135.475 225.03 137.455 225.03 139.897Z" fill="#209DB2" fill-opacity="0.1"/>
<path fill-rule="evenodd" clip-rule="evenodd" d="M249.161 139.897C249.161 141.132 250.163 142.134 251.399 142.134C252.634 142.134 253.636 141.132 253.636 139.897C253.636 138.661 252.634 137.659 251.399 137.659C250.163 137.659 249.161 138.661 249.161 139.897Z" fill="#209DB2" fill-opacity="0.1"/>
<path fill-rule="evenodd" clip-rule="evenodd" d="M269.511 139.897C269.511 142.015 271.228 143.732 273.346 143.732C275.465 143.732 277.182 142.015 277.182 139.897C277.182 137.779 275.465 136.061 273.346 136.061C271.228 136.061 269.511 137.779 269.511 139.897Z" fill="#209DB2" fill-opacity="0.1"/>
<path fill-rule="evenodd" clip-rule="evenodd" d="M294.282 139.897C294.282 140.456 294.735 140.909 295.294 140.909C295.853 140.909 296.306 140.456 296.306 139.897C296.306 139.338 295.853 138.885 295.294 138.885C294.735 138.885 294.282 139.338 294.282 139.897Z" fill="#209DB2" fill-opacity="0.1"/>
<path fill-rule="evenodd" clip-rule="evenodd" d="M-4.354 127.538C-4.354 129.392 -2.85146 130.894 -0.997977 130.894C0.855507 130.894 2.3581 129.392 2.3581 127.538C2.3581 125.685 0.855507 124.182 -0.997977 124.182C-2.85146 124.182 -4.354 125.685 -4.354 127.538Z" fill="#209DB2" fill-opacity="0.1"/>
<path fill-rule="evenodd" clip-rule="evenodd" d="M18.9786 127.538C18.9786 128.627 19.8611 129.509 20.9496 129.509C22.0382 129.509 22.9207 128.627 22.9207 127.538C22.9207 126.449 22.0382 125.567 20.9496 125.567C19.8611 125.567 18.9786 126.449 18.9786 127.538Z" fill="#209DB2" fill-opacity="0.1"/>
<path fill-rule="evenodd" clip-rule="evenodd" d="M39.9673 127.538C39.9673 129.156 41.2791 130.468 42.8971 130.468C44.5153 130.468 45.8271 129.156 45.8271 127.538C45.8271 125.92 44.5153 124.608 42.8971 124.608C41.2791 124.608 39.9673 125.92 39.9673 127.538Z" fill="#209DB2" fill-opacity="0.1"/>
<path fill-rule="evenodd" clip-rule="evenodd" d="M60.956 127.538C60.956 129.686 62.6971 131.427 64.8448 131.427C66.9925 131.427 68.7335 129.686 68.7335 127.538C68.7335 125.39 66.9925 123.649 64.8448 123.649C62.6971 123.649 60.956 125.39 60.956 127.538Z" fill="#209DB2" fill-opacity="0.1"/>
<path fill-rule="evenodd" clip-rule="evenodd" d="M82.211 127.538C82.211 130.068 84.2621 132.119 86.7923 132.119C89.3224 132.119 91.3735 130.068 91.3735 127.538C91.3735 125.008 89.3224 122.957 86.7923 122.957C84.2621 122.957 82.211 125.008 82.211 127.538Z" fill="#209DB2" fill-opacity="0.1"/>
<path fill-rule="evenodd" clip-rule="evenodd" d="M108.26 127.538C108.26 127.803 108.475 128.017 108.74 128.017C109.005 128.017 109.219 127.803 109.219 127.538C109.219 127.273 109.005 127.059 108.74 127.059C108.475 127.059 108.26 127.273 108.26 127.538Z" fill="#209DB2" fill-opacity="0.1"/>
<path fill-rule="evenodd" clip-rule="evenodd" d="M128.663 127.538C128.663 128.656 129.569 129.562 130.687 129.562C131.805 129.562 132.712 128.656 132.712 127.538C132.712 126.42 131.805 125.514 130.687 125.514C129.569 125.514 128.663 126.42 128.663 127.538Z" fill="#209DB2" fill-opacity="0.1"/>
<path fill-rule="evenodd" clip-rule="evenodd" d="M151.303 127.538C151.303 128.274 151.899 128.87 152.635 128.87C153.37 128.87 153.967 128.274 153.967 127.538C153.967 126.803 153.37 126.206 152.635 126.206C151.899 126.206 151.303 126.803 151.303 127.538Z" fill="#209DB2" fill-opacity="0.1"/>
<path fill-rule="evenodd" clip-rule="evenodd" d="M217.678 127.538C217.678 127.979 218.036 128.337 218.478 128.337C218.919 128.337 219.277 127.979 219.277 127.538C219.277 127.097 218.919 126.739 218.478 126.739C218.036 126.739 217.678 127.097 217.678 127.538Z" fill="#209DB2" fill-opacity="0.1"/>
<path fill-rule="evenodd" clip-rule="evenodd" d="M234.352 127.538C234.352 130.892 237.071 133.611 240.425 133.611C243.779 133.611 246.498 130.892 246.498 127.538C246.498 124.184 243.779 121.465 240.425 121.465C237.071 121.465 234.352 124.184 234.352 127.538Z" fill="#209DB2" fill-opacity="0.1"/>
<path fill-rule="evenodd" clip-rule="evenodd" d="M259.443 127.538C259.443 129.156 260.754 130.468 262.373 130.468C263.991 130.468 265.302 129.156 265.302 127.538C265.302 125.92 263.991 124.608 262.373 124.608C260.754 124.608 259.443 125.92 259.443 127.538Z" fill="#209DB2" fill-opacity="0.1"/>
<path fill-rule="evenodd" clip-rule="evenodd" d="M9.01697 115.233C9.01697 115.762 9.44632 116.191 9.97584 116.191C10.5054 116.191 10.9347 115.762 10.9347 115.233C10.9347 114.703 10.5054 114.274 9.97584 114.274C9.44627 114.274 9.01697 114.703 9.01697 115.233Z" fill="#209DB2" fill-opacity="0.1"/>
<path fill-rule="evenodd" clip-rule="evenodd" d="M26.5431 115.233C26.5431 118.204 28.9519 120.613 31.9234 120.613C34.8949 120.613 37.3037 118.204 37.3037 115.233C37.3037 112.261 34.8949 109.852 31.9234 109.852C28.9519 109.852 26.5431 112.261 26.5431 115.233Z" fill="#209DB2" fill-opacity="0.1"/>
<path fill-rule="evenodd" clip-rule="evenodd" d="M52.9653 115.233C52.9653 115.733 53.3708 116.138 53.871 116.138C54.3711 116.138 54.7765 115.733 54.7765 115.233C54.7765 114.733 54.3711 114.327 53.871 114.327C53.3708 114.327 52.9653 114.733 52.9653 115.233Z" fill="#209DB2" fill-opacity="0.1"/>
<path fill-rule="evenodd" clip-rule="evenodd" d="M75.4456 115.233C75.4456 115.439 75.6126 115.606 75.8185 115.606C76.0245 115.606 76.1914 115.439 76.1914 115.233C76.1914 115.027 76.0245 114.86 75.8185 114.86C75.6126 114.86 75.4456 115.027 75.4456 115.233Z" fill="#209DB2" fill-opacity="0.1"/>
<path fill-rule="evenodd" clip-rule="evenodd" d="M93.0249 115.233C93.0249 117.851 95.1476 119.974 97.766 119.974C100.384 119.974 102.507 117.851 102.507 115.233C102.507 112.614 100.384 110.492 97.766 110.492C95.1476 110.492 93.0249 112.614 93.0249 115.233Z" fill="#209DB2" fill-opacity="0.1"/>
<path fill-rule="evenodd" clip-rule="evenodd" d="M136.547 115.233C136.547 118.057 138.837 120.347 141.661 120.347C144.486 120.347 146.775 118.057 146.775 115.233C146.775 112.408 144.485 110.119 141.661 110.119C138.837 110.119 136.547 112.408 136.547 115.233Z" fill="#209DB2" fill-opacity="0.1"/>
<path fill-rule="evenodd" clip-rule="evenodd" d="M159.56 115.233C159.56 117.469 161.373 119.281 163.609 119.281C165.845 119.281 167.657 117.469 167.657 115.233C167.657 112.997 165.844 111.184 163.609 111.184C161.373 111.184 159.56 112.997 159.56 115.233Z" fill="#209DB2" fill-opacity="0.1"/>
<path fill-rule="evenodd" clip-rule="evenodd" d="M179.323 115.233C179.323 118.675 182.114 121.465 185.556 121.465C188.998 121.465 191.789 118.675 191.789 115.233C191.789 111.79 188.998 109 185.556 109C182.114 109 179.323 111.79 179.323 115.233Z" fill="#209DB2" fill-opacity="0.1"/>
<path fill-rule="evenodd" clip-rule="evenodd" d="M202.443 115.233C202.443 118.027 204.709 120.293 207.504 120.293C210.299 120.293 212.564 118.027 212.564 115.233C212.564 112.438 210.299 110.172 207.504 110.172C204.709 110.172 202.443 112.438 202.443 115.233Z" fill="#209DB2" fill-opacity="0.1"/>
<path fill-rule="evenodd" clip-rule="evenodd" d="M227.8 115.233C227.8 116.145 228.539 116.884 229.451 116.884C230.363 116.884 231.103 116.145 231.103 115.233C231.103 114.321 230.363 113.581 229.451 113.581C228.539 113.581 227.8 114.321 227.8 115.233Z" fill="#209DB2" fill-opacity="0.1"/>
<path fill-rule="evenodd" clip-rule="evenodd" d="M248.469 115.233C248.469 116.851 249.781 118.163 251.399 118.163C253.017 118.163 254.329 116.851 254.329 115.233C254.329 113.615 253.017 112.303 251.399 112.303C249.781 112.303 248.469 113.615 248.469 115.233Z" fill="#209DB2" fill-opacity="0.1"/>
<path fill-rule="evenodd" clip-rule="evenodd" d="M290.606 115.233C290.606 117.822 292.705 119.92 295.294 119.92C297.883 119.92 299.982 117.822 299.982 115.233C299.982 112.643 297.883 110.545 295.294 110.545C292.705 110.545 290.606 112.643 290.606 115.233Z" fill="#209DB2" fill-opacity="0.1"/>
<path fill-rule="evenodd" clip-rule="evenodd" d="M18.4992 102.874C18.4992 104.227 19.5963 105.324 20.9497 105.324C22.303 105.324 23.4001 104.227 23.4001 102.874C23.4001 101.52 22.303 100.423 20.9497 100.423C19.5963 100.423 18.4992 101.52 18.4992 102.874Z" fill="#209DB2" fill-opacity="0.1"/>
<path fill-rule="evenodd" clip-rule="evenodd" d="M42.0448 102.874C42.0448 103.345 42.4265 103.726 42.8971 103.726C43.3679 103.726 43.7495 103.345 43.7495 102.874C43.7495 102.403 43.3678 102.021 42.8971 102.021C42.4264 102.021 42.0448 102.403 42.0448 102.874Z" fill="#209DB2" fill-opacity="0.1"/>
<path fill-rule="evenodd" clip-rule="evenodd" d="M81.3054 102.874C81.3054 105.904 83.7619 108.361 86.7922 108.361C89.8225 108.361 92.2791 105.904 92.2791 102.874C92.2791 99.8434 89.8225 97.3868 86.7922 97.3868C83.7619 97.3868 81.3054 99.8434 81.3054 102.874Z" fill="#209DB2" fill-opacity="0.1"/>
<path fill-rule="evenodd" clip-rule="evenodd" d="M106.822 102.874C106.822 103.933 107.68 104.791 108.74 104.791C109.799 104.791 110.657 103.933 110.657 102.874C110.657 101.815 109.799 100.956 108.74 100.956C107.68 100.956 106.822 101.815 106.822 102.874Z" fill="#209DB2" fill-opacity="0.1"/>
<path fill-rule="evenodd" clip-rule="evenodd" d="M129.622 102.874C129.622 103.462 130.099 103.939 130.687 103.939C131.276 103.939 131.753 103.462 131.753 102.874C131.753 102.285 131.276 101.808 130.687 101.808C130.099 101.808 129.622 102.285 129.622 102.874Z" fill="#209DB2" fill-opacity="0.1"/>
<path fill-rule="evenodd" clip-rule="evenodd" d="M148.107 102.874C148.107 105.374 150.134 107.402 152.635 107.402C155.136 107.402 157.163 105.374 157.163 102.874C157.163 100.373 155.136 98.3457 152.635 98.3457C150.134 98.3457 148.107 100.373 148.107 102.874Z" fill="#209DB2" fill-opacity="0.1"/>
<path fill-rule="evenodd" clip-rule="evenodd" d="M173.144 102.874C173.144 103.668 173.788 104.312 174.582 104.312C175.377 104.312 176.021 103.668 176.021 102.874C176.021 102.079 175.377 101.436 174.582 101.436C173.788 101.436 173.144 102.079 173.144 102.874Z" fill="#209DB2" fill-opacity="0.1"/>
<path fill-rule="evenodd" clip-rule="evenodd" d="M216.613 102.874C216.613 103.903 217.448 104.738 218.478 104.738C219.507 104.738 220.342 103.903 220.342 102.874C220.342 101.844 219.507 101.009 218.478 101.009C217.448 101.009 216.613 101.844 216.613 102.874Z" fill="#209DB2" fill-opacity="0.1"/>
<path fill-rule="evenodd" clip-rule="evenodd" d="M237.761 102.874C237.761 104.345 238.954 105.537 240.425 105.537C241.896 105.537 243.089 104.345 243.089 102.874C243.089 101.403 241.896 100.21 240.425 100.21C238.954 100.21 237.761 101.403 237.761 102.874Z" fill="#209DB2" fill-opacity="0.1"/>
<path fill-rule="evenodd" clip-rule="evenodd" d="M260.828 102.874C260.828 103.727 261.519 104.419 262.373 104.419C263.226 104.419 263.917 103.727 263.917 102.874C263.917 102.02 263.226 101.329 262.373 101.329C261.519 101.329 260.828 102.02 260.828 102.874Z" fill="#209DB2" fill-opacity="0.1"/>
<path fill-rule="evenodd" clip-rule="evenodd" d="M283.201 102.874C283.201 103.492 283.702 103.992 284.32 103.992C284.938 103.992 285.439 103.492 285.439 102.874C285.439 102.256 284.938 101.755 284.32 101.755C283.702 101.755 283.201 102.256 283.201 102.874Z" fill="#209DB2" fill-opacity="0.1"/>
<path fill-rule="evenodd" clip-rule="evenodd" d="M-3.34192 98.9096C-3.34192 100.528 -2.03014 101.84 -0.412064 101.84C1.20609 101.84 2.51786 100.528 2.51786 98.9096C2.51786 97.2915 1.20609 95.9797 -0.412064 95.9797C-2.03014 95.9797 -3.34192 97.2915 -3.34192 98.9096Z" fill="#209DB2" fill-opacity="0.1"/>
<path fill-rule="evenodd" clip-rule="evenodd" d="M9.38989 90.5681C9.38989 90.8918 9.65225 91.1541 9.97585 91.1541C10.2994 91.1541 10.5618 90.8918 10.5618 90.5681C10.5618 90.2445 10.2994 89.9822 9.97585 89.9822C9.65225 89.9822 9.38989 90.2445 9.38989 90.5681Z" fill="#209DB2" fill-opacity="0.1"/>
<path fill-rule="evenodd" clip-rule="evenodd" d="M28.9402 90.568C28.9402 92.2156 30.2758 93.5512 31.9234 93.5512C33.5709 93.5512 34.9065 92.2156 34.9065 90.568C34.9065 88.9204 33.5709 87.5848 31.9234 87.5848C30.2758 87.5848 28.9402 88.9204 28.9402 90.568Z" fill="#209DB2" fill-opacity="0.1"/>
<path fill-rule="evenodd" clip-rule="evenodd" d="M71.184 90.568C71.184 93.1276 73.2589 95.2026 75.8185 95.2026C78.3781 95.2026 80.4531 93.1276 80.4531 90.568C80.4531 88.0084 78.3781 85.9335 75.8185 85.9335C73.2589 85.9335 71.184 88.0084 71.184 90.568Z" fill="#209DB2" fill-opacity="0.1"/>
<path fill-rule="evenodd" clip-rule="evenodd" d="M118.542 90.5682C118.542 91.2154 119.066 91.7402 119.714 91.7402C120.361 91.7402 120.886 91.2154 120.886 90.5682C120.886 89.921 120.361 89.3962 119.714 89.3962C119.066 89.3962 118.542 89.921 118.542 90.5682Z" fill="#209DB2" fill-opacity="0.1"/>
<path fill-rule="evenodd" clip-rule="evenodd" d="M136.6 90.568C136.6 93.363 138.866 95.6288 141.661 95.6288C144.456 95.6288 146.722 93.363 146.722 90.568C146.722 87.7731 144.456 85.5073 141.661 85.5073C138.866 85.5073 136.6 87.7731 136.6 90.568Z" fill="#209DB2" fill-opacity="0.1"/>
<path fill-rule="evenodd" clip-rule="evenodd" d="M159.72 90.5682C159.72 92.7159 161.461 94.457 163.609 94.457C165.756 94.457 167.497 92.7159 167.497 90.5682C167.497 88.4205 165.756 86.6794 163.609 86.6794C161.461 86.6794 159.72 88.4205 159.72 90.5682Z" fill="#209DB2" fill-opacity="0.1"/>
<path fill-rule="evenodd" clip-rule="evenodd" d="M184.224 90.5682C184.224 91.3038 184.821 91.9 185.556 91.9C186.292 91.9 186.888 91.3038 186.888 90.5682C186.888 89.8327 186.292 89.2365 185.556 89.2365C184.821 89.2365 184.224 89.8327 184.224 90.5682Z" fill="#209DB2" fill-opacity="0.1"/>
<path fill-rule="evenodd" clip-rule="evenodd" d="M202.549 90.568C202.549 93.3042 204.768 95.5222 207.504 95.5222C210.24 95.5222 212.458 93.3042 212.458 90.568C212.458 87.832 210.24 85.6139 207.504 85.6139C204.768 85.6139 202.549 87.832 202.549 90.568Z" fill="#209DB2" fill-opacity="0.1"/>
<path fill-rule="evenodd" clip-rule="evenodd" d="M228.386 90.5682C228.386 91.1566 228.863 91.6336 229.451 91.6336C230.04 91.6336 230.517 91.1566 230.517 90.5682C230.517 89.9798 230.04 89.5028 229.451 89.5028C228.863 89.5028 228.386 89.9798 228.386 90.5682Z" fill="#209DB2" fill-opacity="0.1"/>
<path fill-rule="evenodd" clip-rule="evenodd" d="M245.646 90.5681C245.646 93.7455 248.221 96.3213 251.399 96.3213C254.576 96.3213 257.152 93.7455 257.152 90.5681C257.152 87.3906 254.576 84.8148 251.399 84.8148C248.221 84.8148 245.646 87.3906 245.646 90.5681Z" fill="#209DB2" fill-opacity="0.1"/>
<path fill-rule="evenodd" clip-rule="evenodd" d="M268.818 90.568C268.818 93.0688 270.845 95.0961 273.346 95.0961C275.847 95.0961 277.874 93.0688 277.874 90.568C277.874 88.0673 275.847 86.04 273.346 86.04C270.845 86.04 268.818 88.0673 268.818 90.568Z" fill="#209DB2" fill-opacity="0.1"/>
<path fill-rule="evenodd" clip-rule="evenodd" d="M291.725 90.5681C291.725 92.5393 293.323 94.1373 295.294 94.1373C297.265 94.1373 298.863 92.5393 298.863 90.5681C298.863 88.597 297.265 86.999 295.294 86.999C293.323 86.999 291.725 88.597 291.725 90.5681Z" fill="#209DB2" fill-opacity="0.1"/>
<path fill-rule="evenodd" clip-rule="evenodd" d="M-2.27637 78.2094C-2.27637 78.9155 -1.70395 79.4879 -0.997869 79.4879C-0.291736 79.4879 0.280681 78.9155 0.280681 78.2094C0.280681 77.5033 -0.291736 76.9309 -0.997869 76.9309C-1.70395 76.9309 -2.27637 77.5033 -2.27637 78.2094Z" fill="#209DB2" fill-opacity="0.1"/>
<path fill-rule="evenodd" clip-rule="evenodd" d="M18.073 78.2095C18.073 79.7982 19.3609 81.0861 20.9496 81.0861C22.5383 81.0861 23.8263 79.7982 23.8263 78.2095C23.8263 76.6208 22.5383 75.3329 20.9496 75.3329C19.3609 75.3329 18.073 76.6208 18.073 78.2095Z" fill="#209DB2" fill-opacity="0.1"/>
<path fill-rule="evenodd" clip-rule="evenodd" d="M41.0327 78.2095C41.0327 79.2391 41.8675 80.0739 42.8972 80.0739C43.9269 80.0739 44.7617 79.2391 44.7617 78.2095C44.7617 77.1797 43.9269 76.345 42.8972 76.345C41.8675 76.345 41.0327 77.1797 41.0327 78.2095Z" fill="#209DB2" fill-opacity="0.1"/>
<path fill-rule="evenodd" clip-rule="evenodd" d="M64.0457 78.2092C64.0457 78.6505 64.4034 79.0083 64.8447 79.0083C65.286 79.0083 65.6438 78.6505 65.6438 78.2092C65.6438 77.7679 65.286 77.4102 64.8447 77.4102C64.4034 77.4102 64.0457 77.7679 64.0457 78.2092Z" fill="#209DB2" fill-opacity="0.1"/>
<path fill-rule="evenodd" clip-rule="evenodd" d="M84.5548 78.2093C84.5548 79.445 85.5565 80.4467 86.7922 80.4467C88.0278 80.4467 89.0296 79.445 89.0296 78.2093C89.0296 76.9736 88.0278 75.9719 86.7922 75.9719C85.5565 75.9719 84.5548 76.9736 84.5548 78.2093Z" fill="#209DB2" fill-opacity="0.1"/>
<path fill-rule="evenodd" clip-rule="evenodd" d="M107.408 78.2095C107.408 78.945 108.004 79.5412 108.74 79.5412C109.475 79.5412 110.072 78.945 110.072 78.2095C110.072 77.4739 109.475 76.8777 108.74 76.8777C108.004 76.8777 107.408 77.4739 107.408 78.2095Z" fill="#209DB2" fill-opacity="0.1"/>
<path fill-rule="evenodd" clip-rule="evenodd" d="M150.344 78.2095C150.344 79.4746 151.37 80.5001 152.635 80.5001C153.9 80.5001 154.926 79.4746 154.926 78.2095C154.926 76.9444 153.9 75.9188 152.635 75.9188C151.37 75.9188 150.344 76.9444 150.344 78.2095Z" fill="#209DB2" fill-opacity="0.1"/>
<path fill-rule="evenodd" clip-rule="evenodd" d="M190.883 78.2093C190.883 81.3279 193.411 83.856 196.53 83.856C199.649 83.856 202.177 81.3279 202.177 78.2093C202.177 75.0907 199.649 72.5626 196.53 72.5626C193.411 72.5626 190.883 75.0907 190.883 78.2093Z" fill="#209DB2" fill-opacity="0.1"/>
<path fill-rule="evenodd" clip-rule="evenodd" d="M214.802 78.2093C214.802 80.2393 216.447 81.8849 218.478 81.8849C220.508 81.8849 222.153 80.2393 222.153 78.2093C222.153 76.1792 220.508 74.5336 218.478 74.5336C216.447 74.5336 214.802 76.1792 214.802 78.2093Z" fill="#209DB2" fill-opacity="0.1"/>
<path fill-rule="evenodd" clip-rule="evenodd" d="M239.413 78.2094C239.413 78.7684 239.866 79.2216 240.425 79.2216C240.984 79.2216 241.437 78.7684 241.437 78.2094C241.437 77.6504 240.984 77.1973 240.425 77.1973C239.866 77.1973 239.413 77.6504 239.413 78.2094Z" fill="#209DB2" fill-opacity="0.1"/>
<path fill-rule="evenodd" clip-rule="evenodd" d="M256.939 78.2094C256.939 81.2103 259.372 83.643 262.373 83.643C265.373 83.643 267.806 81.2103 267.806 78.2094C267.806 75.2085 265.373 72.7758 262.373 72.7758C259.372 72.7758 256.939 75.2085 256.939 78.2094Z" fill="#209DB2" fill-opacity="0.1"/>
<path fill-rule="evenodd" clip-rule="evenodd" d="M280.644 78.2093C280.644 80.2393 282.29 81.8849 284.32 81.8849C286.35 81.8849 287.996 80.2393 287.996 78.2093C287.996 76.1792 286.35 74.5336 284.32 74.5336C282.29 74.5336 280.644 76.1792 280.644 78.2093Z" fill="#209DB2" fill-opacity="0.1"/>
<path fill-rule="evenodd" clip-rule="evenodd" d="M7.73853 65.9037C7.73853 67.1394 8.74024 68.1411 9.9759 68.1411C11.2116 68.1411 12.2133 67.1394 12.2133 65.9037C12.2133 64.6681 11.2116 63.6664 9.9759 63.6664C8.74024 63.6664 7.73853 64.6681 7.73853 65.9037Z" fill="#209DB2" fill-opacity="0.1"/>
<path fill-rule="evenodd" clip-rule="evenodd" d="M28.8336 65.9038C28.8336 67.6102 30.2169 68.9935 31.9233 68.9935C33.6297 68.9935 35.013 67.6102 35.013 65.9038C35.013 64.1974 33.6297 62.8141 31.9233 62.8141C30.2169 62.8141 28.8336 64.1974 28.8336 65.9038Z" fill="#209DB2" fill-opacity="0.1"/>
<path fill-rule="evenodd" clip-rule="evenodd" d="M53.2317 65.9038C53.2317 66.2568 53.5179 66.543 53.8709 66.543C54.224 66.543 54.5102 66.2568 54.5102 65.9038C54.5102 65.5507 54.224 65.2645 53.8709 65.2645C53.5179 65.2645 53.2317 65.5507 53.2317 65.9038Z" fill="#209DB2" fill-opacity="0.1"/>
<path fill-rule="evenodd" clip-rule="evenodd" d="M73.6343 65.9039C73.6343 67.1101 74.6122 68.0879 75.8184 68.0879C77.0247 68.0879 78.0025 67.1101 78.0025 65.9039C78.0025 64.6976 77.0247 63.7197 75.8184 63.7197C74.6122 63.7197 73.6343 64.6976 73.6343 65.9039Z" fill="#209DB2" fill-opacity="0.1"/>
<path fill-rule="evenodd" clip-rule="evenodd" d="M95.7418 65.9038C95.7418 67.0218 96.6481 67.9281 97.766 67.9281C98.884 67.9281 99.7903 67.0218 99.7903 65.9038C99.7903 64.7858 98.884 63.8795 97.766 63.8795C96.6481 63.8795 95.7418 64.7858 95.7418 65.9038Z" fill="#209DB2" fill-opacity="0.1"/>
<path fill-rule="evenodd" clip-rule="evenodd" d="M117.689 65.9038C117.689 67.0218 118.596 67.9281 119.713 67.9281C120.831 67.9281 121.738 67.0218 121.738 65.9038C121.738 64.7858 120.831 63.8795 119.713 63.8795C118.596 63.8795 117.689 64.7858 117.689 65.9038Z" fill="#209DB2" fill-opacity="0.1"/>
<path fill-rule="evenodd" clip-rule="evenodd" d="M137.133 65.9039C137.133 68.4046 139.16 70.4319 141.661 70.4319C144.162 70.4319 146.189 68.4046 146.189 65.9039C146.189 63.4031 144.162 61.3759 141.661 61.3759C139.16 61.3759 137.133 63.4031 137.133 65.9039Z" fill="#209DB2" fill-opacity="0.1"/>
<path fill-rule="evenodd" clip-rule="evenodd" d="M162.756 65.9037C162.756 66.3745 163.138 66.7561 163.609 66.7561C164.079 66.7561 164.461 66.3745 164.461 65.9037C164.461 65.433 164.079 65.0514 163.609 65.0514C163.138 65.0514 162.756 65.433 162.756 65.9037Z" fill="#209DB2" fill-opacity="0.1"/>
<path fill-rule="evenodd" clip-rule="evenodd" d="M182.413 65.9039C182.413 67.6397 183.82 69.0468 185.556 69.0468C187.292 69.0468 188.699 67.6397 188.699 65.9039C188.699 64.168 187.292 62.7609 185.556 62.7609C183.82 62.7609 182.413 64.168 182.413 65.9039Z" fill="#209DB2" fill-opacity="0.1"/>
<path fill-rule="evenodd" clip-rule="evenodd" d="M203.828 65.9039C203.828 67.9338 205.474 69.5795 207.504 69.5795C209.534 69.5795 211.179 67.9338 211.179 65.9039C211.179 63.8738 209.534 62.2281 207.504 62.2281C205.474 62.2281 203.828 63.8738 203.828 65.9039Z" fill="#209DB2" fill-opacity="0.1"/>
<path fill-rule="evenodd" clip-rule="evenodd" d="M225.509 65.9038C225.509 68.081 227.274 69.8459 229.451 69.8459C231.628 69.8459 233.393 68.081 233.393 65.9038C233.393 63.7267 231.628 61.9618 229.451 61.9618C227.274 61.9618 225.509 63.7267 225.509 65.9038Z" fill="#209DB2" fill-opacity="0.1"/>
<path fill-rule="evenodd" clip-rule="evenodd" d="M249.108 65.9038C249.108 67.1689 250.134 68.1944 251.399 68.1944C252.664 68.1944 253.689 67.1689 253.689 65.9038C253.689 64.6387 252.664 63.6132 251.399 63.6132C250.134 63.6132 249.108 64.6387 249.108 65.9038Z" fill="#209DB2" fill-opacity="0.1"/>
<path fill-rule="evenodd" clip-rule="evenodd" d="M268.552 65.9039C268.552 68.5517 270.699 70.6982 273.346 70.6982C275.994 70.6982 278.141 68.5517 278.141 65.9039C278.141 63.256 275.994 61.1095 273.346 61.1095C270.699 61.1095 268.552 63.256 268.552 65.9039Z" fill="#209DB2" fill-opacity="0.1"/>
<path fill-rule="evenodd" clip-rule="evenodd" d="M291.938 65.9038C291.938 67.7573 293.44 69.2598 295.294 69.2598C297.147 69.2598 298.65 67.7573 298.65 65.9038C298.65 64.0503 297.147 62.5477 295.294 62.5477C293.44 62.5477 291.938 64.0503 291.938 65.9038Z" fill="#209DB2" fill-opacity="0.1"/>
<path fill-rule="evenodd" clip-rule="evenodd" d="M-3.82129 53.545C-3.82129 55.1043 -2.55728 56.3684 -0.997964 56.3684C0.561341 56.3684 1.82541 55.1043 1.82541 53.545C1.82541 51.9857 0.561341 50.7217 -0.997964 50.7217C-2.55728 50.7217 -3.82129 51.9857 -3.82129 53.545Z" fill="#209DB2" fill-opacity="0.1"/>
<path fill-rule="evenodd" clip-rule="evenodd" d="M85.4071 53.5451C85.4071 54.31 86.0272 54.9301 86.7921 54.9301C87.5571 54.9301 88.1771 54.31 88.1771 53.5451C88.1771 52.7802 87.5571 52.16 86.7921 52.16C86.0272 52.16 85.4071 52.7802 85.4071 53.5451Z" fill="#209DB2" fill-opacity="0.1"/>
<path fill-rule="evenodd" clip-rule="evenodd" d="M129.409 53.545C129.409 54.2511 129.981 54.8235 130.687 54.8235C131.393 54.8235 131.966 54.2511 131.966 53.545C131.966 52.8389 131.393 52.2665 130.687 52.2665C129.981 52.2665 129.409 52.8389 129.409 53.545Z" fill="#209DB2" fill-opacity="0.1"/>
<path fill-rule="evenodd" clip-rule="evenodd" d="M151.09 53.545C151.09 54.3982 151.782 55.0898 152.635 55.0898C153.488 55.0898 154.18 54.3982 154.18 53.545C154.18 52.6918 153.488 52.0001 152.635 52.0001C151.782 52.0001 151.09 52.6918 151.09 53.545Z" fill="#209DB2" fill-opacity="0.1"/>
<path fill-rule="evenodd" clip-rule="evenodd" d="M169.362 53.5451C169.362 56.4283 171.699 58.7656 174.582 58.7656C177.466 58.7656 179.803 56.4283 179.803 53.5451C179.803 50.6619 177.466 48.3246 174.582 48.3246C171.699 48.3246 169.362 50.6619 169.362 53.5451Z" fill="#209DB2" fill-opacity="0.1"/>
<path fill-rule="evenodd" clip-rule="evenodd" d="M194.133 53.5451C194.133 54.8691 195.206 55.9423 196.53 55.9423C197.854 55.9423 198.927 54.8691 198.927 53.5451C198.927 52.2212 197.854 51.1479 196.53 51.1479C195.206 51.1479 194.133 52.2212 194.133 53.5451Z" fill="#209DB2" fill-opacity="0.1"/>
<path fill-rule="evenodd" clip-rule="evenodd" d="M215.015 53.5451C215.015 55.4575 216.565 57.0077 218.478 57.0077C220.39 57.0077 221.94 55.4575 221.94 53.5451C221.94 51.6328 220.39 50.0825 218.478 50.0825C216.565 50.0825 215.015 51.6328 215.015 53.5451Z" fill="#209DB2" fill-opacity="0.1"/>
<path fill-rule="evenodd" clip-rule="evenodd" d="M240.159 53.5455C240.159 53.6929 240.278 53.8123 240.425 53.8123C240.573 53.8123 240.692 53.6929 240.692 53.5455C240.692 53.3981 240.573 53.2787 240.425 53.2787C240.278 53.2787 240.159 53.3981 240.159 53.5455Z" fill="#209DB2" fill-opacity="0.1"/>
<path fill-rule="evenodd" clip-rule="evenodd" d="M255.98 53.545C255.98 57.0754 258.842 59.9374 262.373 59.9374C265.903 59.9374 268.765 57.0754 268.765 53.545C268.765 50.0145 265.903 47.1525 262.373 47.1525C258.842 47.1525 255.98 50.0145 255.98 53.545Z" fill="#209DB2" fill-opacity="0.1"/>
<path fill-rule="evenodd" clip-rule="evenodd" d="M283.734 53.5449C283.734 53.8686 283.996 54.1309 284.32 54.1309C284.644 54.1309 284.906 53.8686 284.906 53.5449C284.906 53.2213 284.644 52.959 284.32 52.959C283.996 52.959 283.734 53.2213 283.734 53.5449Z" fill="#209DB2" fill-opacity="0.1"/>
<path fill-rule="evenodd" clip-rule="evenodd" d="M119.341 41.2393C119.341 41.4453 119.508 41.6122 119.714 41.6122C119.919 41.6122 120.086 41.4453 120.086 41.2393C120.086 41.0334 119.919 40.8665 119.714 40.8665C119.508 40.8665 119.341 41.0334 119.341 41.2393Z" fill="#209DB2" fill-opacity="0.1"/>
<path fill-rule="evenodd" clip-rule="evenodd" d="M138.518 41.2394C138.518 42.9752 139.925 44.3824 141.661 44.3824C143.397 44.3824 144.804 42.9752 144.804 41.2394C144.804 39.5036 143.397 38.0964 141.661 38.0964C139.925 38.0964 138.518 39.5036 138.518 41.2394Z" fill="#209DB2" fill-opacity="0.1"/>
<path fill-rule="evenodd" clip-rule="evenodd" d="M161.904 41.2396C161.904 42.181 162.667 42.9443 163.609 42.9443C164.55 42.9443 165.313 42.1811 165.313 41.2396C165.313 40.2981 164.55 39.5349 163.609 39.5349C162.667 39.5349 161.904 40.2981 161.904 41.2396Z" fill="#209DB2" fill-opacity="0.1"/>
<path fill-rule="evenodd" clip-rule="evenodd" d="M185.023 41.2394C185.023 41.5336 185.262 41.7721 185.556 41.7721C185.85 41.7721 186.089 41.5336 186.089 41.2394C186.089 40.9451 185.85 40.7067 185.556 40.7067C185.262 40.7067 185.023 40.9451 185.023 41.2394Z" fill="#209DB2" fill-opacity="0.1"/>
<path fill-rule="evenodd" clip-rule="evenodd" d="M205 41.2394C205 42.6222 206.121 43.7432 207.504 43.7432C208.887 43.7432 210.007 42.6222 210.007 41.2394C210.007 39.8567 208.887 38.7357 207.504 38.7357C206.121 38.7357 205 39.8567 205 41.2394Z" fill="#209DB2" fill-opacity="0.1"/>
<path fill-rule="evenodd" clip-rule="evenodd" d="M224.923 41.2394C224.923 43.7402 226.951 45.7675 229.451 45.7675C231.952 45.7675 233.979 43.7402 233.979 41.2394C233.979 38.7387 231.952 36.7114 229.451 36.7114C226.951 36.7114 224.923 38.7387 224.923 41.2394Z" fill="#209DB2" fill-opacity="0.1"/>
<path fill-rule="evenodd" clip-rule="evenodd" d="M249.002 41.2393C249.002 42.5633 250.075 43.6365 251.399 43.6365C252.723 43.6365 253.796 42.5633 253.796 41.2393C253.796 39.9154 252.723 38.8422 251.399 38.8422C250.075 38.8422 249.002 39.9154 249.002 41.2393Z" fill="#209DB2" fill-opacity="0.1"/>
<path fill-rule="evenodd" clip-rule="evenodd" d="M289.967 41.2394C289.967 44.1815 292.352 46.5665 295.294 46.5665C298.236 46.5665 300.621 44.1815 300.621 41.2394C300.621 38.2974 298.236 35.9124 295.294 35.9124C292.352 35.9124 289.967 38.2974 289.967 41.2394Z" fill="#209DB2" fill-opacity="0.1"/>
<path fill-rule="evenodd" clip-rule="evenodd" d="M-4.46045 28.8807C-4.46045 30.793 -2.9102 32.3433 -0.997876 32.3433C0.914496 32.3433 2.46475 30.793 2.46475 28.8807C2.46475 26.9683 0.914496 25.4181 -0.997876 25.4181C-2.9102 25.4181 -4.46045 26.9683 -4.46045 28.8807Z" fill="#209DB2" fill-opacity="0.1"/>
<path fill-rule="evenodd" clip-rule="evenodd" d="M42.7374 28.8809C42.7374 28.9693 42.8091 29.041 42.8974 29.041C42.9859 29.041 43.0576 28.9693 43.0576 28.8809C43.0576 28.7925 42.9858 28.7208 42.8974 28.7208C42.809 28.7208 42.7374 28.7925 42.7374 28.8809Z" fill="#209DB2" fill-opacity="0.1"/>
<path fill-rule="evenodd" clip-rule="evenodd" d="M128.983 28.8807C128.983 29.8222 129.746 30.5853 130.687 30.5853C131.629 30.5853 132.392 29.8222 132.392 28.8807C132.392 27.9392 131.629 27.176 130.687 27.176C129.746 27.176 128.983 27.9392 128.983 28.8807Z" fill="#209DB2" fill-opacity="0.1"/>
<path fill-rule="evenodd" clip-rule="evenodd" d="M150.291 28.8806C150.291 30.1751 151.34 31.2246 152.635 31.2246C153.929 31.2246 154.979 30.1751 154.979 28.8806C154.979 27.5862 153.929 26.5367 152.635 26.5367C151.34 26.5367 150.291 27.5862 150.291 28.8806Z" fill="#209DB2" fill-opacity="0.1"/>
<path fill-rule="evenodd" clip-rule="evenodd" d="M170.96 28.8807C170.96 30.8813 172.582 32.5031 174.582 32.5031C176.583 32.5031 178.205 30.8813 178.205 28.8807C178.205 26.8801 176.583 25.2583 174.582 25.2583C172.582 25.2583 170.96 26.8801 170.96 28.8807Z" fill="#209DB2" fill-opacity="0.1"/>
<path fill-rule="evenodd" clip-rule="evenodd" d="M194.932 28.8807C194.932 29.7633 195.647 30.4788 196.53 30.4788C197.413 30.4788 198.128 29.7633 198.128 28.8807C198.128 27.9981 197.413 27.2826 196.53 27.2826C195.647 27.2826 194.932 27.9981 194.932 28.8807Z" fill="#209DB2" fill-opacity="0.1"/>
<path fill-rule="evenodd" clip-rule="evenodd" d="M214.962 28.8806C214.962 30.8224 216.536 32.3965 218.477 32.3965C220.419 32.3965 221.993 30.8224 221.993 28.8806C221.993 26.9389 220.419 25.3647 218.477 25.3647C216.536 25.3647 214.962 26.9389 214.962 28.8806Z" fill="#209DB2" fill-opacity="0.1"/>
<path fill-rule="evenodd" clip-rule="evenodd" d="M261.094 28.8807C261.094 29.5868 261.667 30.1592 262.373 30.1592C263.079 30.1592 263.651 29.5868 263.651 28.8807C263.651 28.1746 263.079 27.6022 262.373 27.6022C261.667 27.6022 261.094 28.1746 261.094 28.8807Z" fill="#209DB2" fill-opacity="0.1"/>
<path fill-rule="evenodd" clip-rule="evenodd" d="M282.402 28.8806C282.402 29.9398 283.261 30.7984 284.32 30.7984C285.379 30.7984 286.238 29.9398 286.238 28.8806C286.238 27.8215 285.379 26.9629 284.32 26.9629C283.261 26.9629 282.402 27.8215 282.402 28.8806Z" fill="#209DB2" fill-opacity="0.1"/>
<path fill-rule="evenodd" clip-rule="evenodd" d="M183.745 16.5751C183.745 17.5754 184.556 18.3863 185.556 18.3863C186.556 18.3863 187.367 17.5754 187.367 16.5751C187.367 15.5748 186.556 14.7639 185.556 14.7639C184.556 14.7639 183.745 15.5748 183.745 16.5751Z" fill="#209DB2" fill-opacity="0.1"/>
<path fill-rule="evenodd" clip-rule="evenodd" d="M206.119 16.5751C206.119 17.34 206.739 17.9601 207.504 17.9601C208.269 17.9601 208.889 17.34 208.889 16.5751C208.889 15.8102 208.269 15.1901 207.504 15.1901C206.739 15.1901 206.119 15.8102 206.119 16.5751Z" fill="#209DB2" fill-opacity="0.1"/>
<path fill-rule="evenodd" clip-rule="evenodd" d="M249.907 16.5752C249.907 17.399 250.575 18.0668 251.399 18.0668C252.223 18.0668 252.89 17.399 252.89 16.5752C252.89 15.7515 252.223 15.0836 251.399 15.0836C250.575 15.0836 249.907 15.7515 249.907 16.5752Z" fill="#209DB2" fill-opacity="0.1"/>
<path fill-rule="evenodd" clip-rule="evenodd" d="M268.286 16.5753C268.286 19.3702 270.551 21.636 273.346 21.636C276.141 21.636 278.407 19.3702 278.407 16.5753C278.407 13.7803 276.141 11.5145 273.346 11.5145C270.551 11.5145 268.286 13.7803 268.286 16.5753Z" fill="#209DB2" fill-opacity="0.1"/>
<path fill-rule="evenodd" clip-rule="evenodd" d="M294.388 16.5752C294.388 17.0753 294.794 17.4808 295.294 17.4808C295.794 17.4808 296.199 17.0753 296.199 16.5752C296.199 16.075 295.794 15.6696 295.294 15.6696C294.794 15.6696 294.388 16.075 294.388 16.5752Z" fill="#209DB2" fill-opacity="0.1"/>
<path fill-rule="evenodd" clip-rule="evenodd" d="M86.6324 4.21651C86.6324 4.3049 86.7041 4.37656 86.7925 4.37656C86.881 4.37656 86.9526 4.3049 86.9526 4.21651C86.9526 4.12804 86.8809 4.0564 86.7925 4.0564C86.7041 4.0564 86.6324 4.12804 86.6324 4.21651Z" fill="#209DB2" fill-opacity="0.1"/>
<path fill-rule="evenodd" clip-rule="evenodd" d="M194.879 4.21647C194.879 5.12849 195.618 5.86785 196.53 5.86785C197.442 5.86785 198.181 5.12849 198.181 4.21647C198.181 3.30442 197.442 2.56506 196.53 2.56506C195.618 2.56506 194.879 3.30442 194.879 4.21647Z" fill="#209DB2" fill-opacity="0.1"/>
<path fill-rule="evenodd" clip-rule="evenodd" d="M216.613 4.21631C216.613 5.246 217.448 6.08076 218.478 6.08076C219.507 6.08076 220.342 5.246 220.342 4.21631C220.342 3.18659 219.507 2.35181 218.478 2.35181C217.448 2.35181 216.613 3.18659 216.613 4.21631Z" fill="#209DB2" fill-opacity="0.1"/>
<path fill-rule="evenodd" clip-rule="evenodd" d="M237.495 4.21628C237.495 5.83438 238.807 7.14616 240.425 7.14616C242.043 7.14616 243.355 5.83438 243.355 4.21628C243.355 2.59815 242.043 1.28638 240.425 1.28638C238.807 1.28638 237.495 2.59815 237.495 4.21628Z" fill="#209DB2" fill-opacity="0.1"/>
</svg>
