<svg width="1366" height="1176" viewBox="0 0 1366 1176" fill="none" xmlns="http://www.w3.org/2000/svg">
<path d="M1884.19 674.185C1884.29 618.096 1870.29 562.879 1843.48 513.595C1838.29 504.051 1832.62 494.789 1826.46 485.811C1789.85 431.643 1738.29 389.245 1678.04 363.754C1667.96 359.506 1657.62 355.682 1647.03 352.411C1625.64 345.718 1603.63 341.178 1581.34 338.859C1569.88 337.699 1558.36 337.118 1546.84 337.117C1531.74 337.221 1516.66 338.343 1501.7 340.473C1498.51 340.898 1495.37 341.408 1492.22 341.918C1477.85 344.163 1463.64 347.341 1449.68 351.434C1449.89 346.633 1450.4 341.918 1450.4 337.117C1450.4 247.766 1414.86 162.075 1351.59 98.894C1288.33 35.7133 1202.52 0.21875 1113.05 0.21875C1023.58 0.21875 937.771 35.7133 874.505 98.894C811.24 162.075 775.698 247.766 775.698 337.117C775.698 341.918 776.208 346.633 776.421 351.434C726.044 336.273 672.814 333.095 620.988 342.156C569.161 351.216 520.178 372.262 477.954 403.612C435.73 434.962 401.439 475.744 377.823 522.697C354.206 569.65 341.921 621.471 341.948 674.015C297.325 673.515 253.046 681.859 211.674 698.567C170.303 715.274 132.661 740.012 100.929 771.347C69.1972 802.683 44.0052 839.994 26.8119 881.119C9.61859 922.245 0.765625 966.368 0.765625 1010.93C0.765625 1055.5 9.61859 1099.62 26.8119 1140.75C44.0052 1181.87 69.1972 1219.19 100.929 1250.52C132.661 1281.86 170.303 1306.59 211.674 1323.3C253.046 1340.01 297.325 1348.35 341.948 1347.85H1884.19C1928.82 1348.35 1973.09 1340.01 2014.47 1323.3C2055.84 1306.59 2093.48 1281.86 2125.21 1250.52C2156.94 1219.19 2182.14 1181.87 2199.33 1140.75C2216.52 1099.62 2225.37 1055.5 2225.37 1010.93C2225.37 966.368 2216.52 922.245 2199.33 881.119C2182.14 839.994 2156.94 802.683 2125.21 771.347C2093.48 740.012 2055.84 715.274 2014.47 698.567C1973.09 681.859 1928.82 673.515 1884.19 674.015V674.185Z" fill="#CFEAF3" fill-opacity="0.1"/>
</svg>
