<svg width="227" height="132" viewBox="0 0 227 132" fill="none" xmlns="http://www.w3.org/2000/svg">
<path d="M175.303 101.021C175.318 92.6135 173.219 84.3371 169.2 76.95C168.422 75.5193 167.572 74.1311 166.65 72.7853C161.162 64.6662 153.434 58.311 144.403 54.4903C142.891 53.8535 141.342 53.2804 139.754 52.7901C136.548 51.7868 133.25 51.1063 129.909 50.7587C128.191 50.5849 126.465 50.4977 124.738 50.4976C122.474 50.5133 120.214 50.6814 117.972 51.0007C117.494 51.0644 117.022 51.1408 116.55 51.2172C114.396 51.5537 112.266 52.0302 110.174 52.6436C110.206 51.924 110.282 51.2172 110.282 50.4976C110.282 37.1048 104.955 24.2606 95.4723 14.7904C85.9896 5.32027 73.1282 0 59.7176 0C46.307 0 33.4456 5.32027 23.9629 14.7904C14.4801 24.2606 9.15279 37.1048 9.15279 50.4976C9.15279 51.2172 9.22929 51.924 9.26117 52.6436C1.71035 50.3711 -6.2682 49.8948 -14.0363 51.2529C-21.8044 52.6109 -29.1465 55.7656 -35.4753 60.4646C-41.8041 65.1635 -46.944 71.2764 -50.4838 78.3142C-54.0236 85.352 -55.8651 93.1195 -55.861 100.995C-62.5494 100.92 -69.1863 102.171 -75.3874 104.675C-81.5885 107.18 -87.2305 110.887 -91.9867 115.584C-96.7429 120.281 -100.519 125.874 -103.096 132.038C-105.673 138.202 -107 144.816 -107 151.496C-107 158.176 -105.673 164.79 -103.096 170.954C-100.519 177.118 -96.7429 182.711 -91.9867 187.408C-87.2305 192.105 -81.5885 195.812 -75.3874 198.317C-69.1863 200.821 -62.5494 202.072 -55.861 201.997H175.303C181.991 202.072 188.628 200.821 194.829 198.317C201.03 195.812 206.672 192.105 211.428 187.408C216.185 182.711 219.96 177.118 222.538 170.954C225.115 164.79 226.442 158.176 226.442 151.496C226.442 144.816 225.115 138.202 222.538 132.038C219.96 125.874 216.185 120.281 211.428 115.584C206.672 110.887 201.03 107.18 194.829 104.675C188.628 102.171 181.991 100.92 175.303 100.995V101.021Z" fill="#CFEAF3" fill-opacity="0.1"/>
</svg>
